<svg width="37" height="37" viewBox="0 0 37 37" fill="none" xmlns="http://www.w3.org/2000/svg">
<path fill-rule="evenodd" clip-rule="evenodd" d="M3.08337 9.25004C3.08337 5.84428 5.84428 3.08337 9.25004 3.08337H27.75C31.1558 3.08337 33.9167 5.84428 33.9167 9.25004V19.1923L30.4533 16.9253C27.7793 15.1751 24.2791 15.3611 21.8057 17.3848L13.7301 23.9921C12.0378 25.3767 9.6429 25.504 7.81333 24.3064L3.08337 21.2105V9.25004ZM29.1868 18.8602L33.9167 21.9561V27.75C33.9167 31.1558 31.1558 33.9167 27.75 33.9167H9.25004C5.84428 33.9167 3.08337 31.1558 3.08337 27.75V23.9743L6.54687 26.2413C9.22085 27.9916 12.721 27.8056 15.1945 25.7819L23.27 19.1746C24.9624 17.7899 27.3573 17.6627 29.1868 18.8602ZM13.1042 16.9584C15.2328 16.9584 16.9584 15.2328 16.9584 13.1042C16.9584 10.9756 15.2328 9.25004 13.1042 9.25004C10.9756 9.25004 9.25004 10.9756 9.25004 13.1042C9.25004 15.2328 10.9756 16.9584 13.1042 16.9584Z" fill="#019999"/>
</svg>
