<svg version="1.0" xmlns="http://www.w3.org/2000/svg" width="664.000000pt" height="286.000000pt" viewBox="0 0 664.000000 286.000000" preserveAspectRatio="xMidYMid meet"><g transform="translate(0.000000,286.000000) scale(0.100000,-0.100000)" fill="#32a842" stroke="none"><path d="M6455 2829 c-93 -17 -170 -31 -171 -32 -7 -8 -953 -2191 -951 -2194
2 -2 17 0 33 3 27 5 73 86 609 1062 655 1192 655 1192 652 1191 -1 -1 -78 -14
-172 -30z"></path><path d="M3037 2582 c-96 -146 -281 -624 -442 -1143 l-58 -187 -206 -69 c-113
-39 -230 -80 -259 -91 l-52 -22 6 28 c17 68 166 515 261 782 121 340 129 385
78 426 -16 13 -44 29 -62 35 -45 15 -75 -9 -117 -91 -125 -242 -357 -888 -456
-1268 -10 -40 -16 -46 -68 -69 -62 -27 -92 -49 -92 -69 0 -10 75 -67 101 -76
4 -2 2 -28 -6 -58 -25 -99 -55 -287 -54 -347 1 -117 43 -179 106 -157 43 15
66 68 145 339 l73 250 66 32 c80 40 461 194 466 190 2 -2 -8 -46 -22 -98 -76
-288 -130 -602 -123 -717 5 -76 9 -83 66 -113 66 -36 103 54 286 684 57 197
105 360 107 362 5 4 333 107 427 133 l72 20 0 -78 c0 -194 57 -299 212 -393
62 -37 143 -67 182 -67 45 0 123 48 176 108 221 251 372 650 374 992 1 109 -2
141 -16 165 -53 96 -223 186 -307 163 -23 -7 -42 -6 -59 2 -22 10 -35 6 -96
-24 -204 -101 -383 -372 -445 -677 l-12 -56 -72 -12 c-40 -6 -141 -26 -224
-44 -84 -19 -153 -31 -153 -28 0 11 81 264 200 626 180 544 185 565 123 608
-31 21 -84 47 -97 47 -2 0 -15 -17 -29 -38z m979 -703 c-26 -309 -148 -622
-333 -852 -49 -61 -124 -127 -144 -127 -16 0 -32 147 -25 248 6 97 21 201 30
210 2 2 40 12 83 23 43 11 100 27 127 36 l49 16 -24 18 c-19 15 -42 19 -116
19 l-93 0 24 63 c13 34 40 96 61 137 l39 75 8 -42 c6 -29 18 -49 38 -63 32
-23 140 -74 144 -69 1 2 16 60 33 129 28 117 83 260 99 260 4 0 4 -37 0 -81z"></path><path d="M1892 2548 c-21 -23 -80 -148 -203 -428 -206 -471 -642 -1262 -776
-1409 l-42 -46 -1 63 c0 131 113 577 190 742 91 198 95 255 20 272 -33 7 -38
5 -83 -45 -27 -28 -105 -140 -174 -247 -273 -420 -511 -766 -521 -755 -11 10
81 305 148 470 54 136 154 334 240 475 45 74 96 162 112 195 l30 59 -28 22
c-15 13 -45 31 -67 40 -52 24 -70 13 -160 -91 -175 -202 -351 -524 -459 -835
-60 -176 -119 -447 -110 -508 7 -49 63 -105 153 -152 102 -53 146 -56 190 -14
25 24 252 342 300 422 19 31 29 28 29 -10 1 -79 71 -163 177 -213 154 -73 209
-42 379 215 315 479 594 1069 719 1528 44 158 47 232 10 256 -33 22 -48 20
-73 -6z"></path><path d="M5349 2443 c-252 -257 -476 -556 -688 -919 l-65 -110 -80 -33 c-45
-19 -146 -65 -225 -102 -155 -74 -159 -79 -89 -115 26 -13 37 -11 154 27 69
22 128 38 131 36 2 -3 -9 -31 -25 -63 -54 -107 -132 -290 -172 -403 l-40 -111
33 -20 32 -20 23 27 c46 55 204 299 322 497 l120 202 216 83 c119 45 218 80
221 77 4 -3 -22 -82 -55 -176 -63 -174 -101 -323 -89 -352 3 -9 18 -24 32 -34
36 -24 62 -10 118 66 148 196 322 764 397 1294 l21 148 -22 24 c-23 24 -132
84 -153 84 -6 0 -59 -48 -117 -107z m30 -390 c-45 -214 -91 -373 -107 -373 -8
0 -89 -29 -180 -65 -90 -36 -167 -64 -169 -61 -17 17 447 636 477 636 5 0 -5
-62 -21 -137z"></path><path d="M3101 630 c-106 -22 -194 -94 -245 -200 -27 -58 -31 -75 -31 -155 0
-73 4 -97 22 -131 29 -54 93 -110 140 -123 90 -25 213 -6 278 44 37 27 43 43
24 62 -9 9 -25 4 -64 -18 -44 -25 -62 -29 -124 -29 -81 0 -115 13 -155 60 -34
41 -50 103 -42 172 19 184 153 285 328 249 l57 -12 3 -47 c3 -40 6 -47 25 -50
25 -4 31 12 35 93 l3 50 -50 17 c-66 21 -150 29 -204 18z"></path><path d="M3420 610 c0 -14 9 -24 30 -31 23 -9 29 -16 25 -32 -2 -12 -16 -124
-31 -248 l-27 -226 -31 -9 c-21 -6 -32 -16 -34 -32 -3 -22 -1 -22 97 -22 101
0 101 0 101 25 0 18 -7 26 -26 31 -27 7 -27 7 -20 83 11 120 11 121 61 121
l43 0 76 -124 c42 -68 83 -127 92 -130 9 -3 33 -6 55 -6 35 0 39 3 39 25 0 20
-6 27 -27 31 -23 5 -41 27 -94 113 l-66 108 34 12 c43 16 99 65 119 103 22 43
20 125 -4 157 -42 57 -73 66 -249 69 -161 4 -163 3 -163 -18z m317 -60 c46
-29 53 -101 16 -158 -22 -36 -89 -62 -160 -62 -52 0 -63 3 -63 17 0 25 21 196
26 212 6 18 149 11 181 -9z"></path><path d="M3980 610 c0 -12 11 -25 28 -32 l28 -13 -30 -246 -29 -246 -31 -9
c-21 -6 -32 -16 -34 -32 -3 -22 -1 -22 97 -22 101 0 101 0 101 25 0 19 -7 26
-27 31 -16 3 -30 6 -33 7 -8 3 43 427 51 427 3 0 43 -88 89 -195 47 -107 90
-197 97 -199 7 -3 19 -3 27 0 8 3 74 93 146 200 73 108 134 194 136 192 2 -2
-9 -99 -23 -216 -24 -192 -28 -212 -45 -212 -31 0 -58 -19 -58 -40 0 -19 7
-20 100 -20 100 0 100 0 100 25 0 18 -7 26 -25 31 -14 3 -25 13 -25 23 -1 40
52 448 60 469 6 12 18 22 29 22 18 0 41 26 41 45 0 3 -33 5 -72 3 l-73 -3
-143 -210 c-79 -116 -146 -209 -150 -207 -4 2 -48 96 -97 210 l-91 207 -72 3
c-67 3 -72 1 -72 -18z"></path><path d="M5123 371 c-68 -31 -95 -106 -64 -176 23 -53 57 -77 119 -82 63 -6
109 24 136 90 20 47 20 47 0 95 -15 38 -28 51 -64 70 -54 27 -73 27 -127 3z"></path></g></svg>