<svg width="20" height="20" viewBox="0 0 20 20" fill="none" xmlns="http://www.w3.org/2000/svg"><path fill-rule="evenodd" clip-rule="evenodd" d="M9.1665 2.5H10.8332C14.9753 2.5 18.3332 5.85786 18.3332 10C18.3332 14.1421 14.9753 17.5 10.8332 17.5H4.99984C3.15889 17.5 1.6665 16.0076 1.6665 14.1667V10C1.6665 5.85786 5.02437 2.5 9.1665 2.5ZM9.99984 10.8333C10.4601 10.8333 10.8332 10.4602 10.8332 10C10.8332 9.53976 10.4601 9.16667 9.99984 9.16667C9.5396 9.16667 9.1665 9.53976 9.1665 10C9.1665 10.4602 9.5396 10.8333 9.99984 10.8333ZM14.1665 10C14.1665 10.4602 13.7934 10.8333 13.3332 10.8333C12.8729 10.8333 12.4998 10.4602 12.4998 10C12.4998 9.53976 12.8729 9.16667 13.3332 9.16667C13.7934 9.16667 14.1665 9.53976 14.1665 10ZM6.6665 10.8333C7.12674 10.8333 7.49984 10.4602 7.49984 10C7.49984 9.53976 7.12674 9.16667 6.6665 9.16667C6.20627 9.16667 5.83317 9.53976 5.83317 10C5.83317 10.4602 6.20627 10.8333 6.6665 10.8333Z" fill="white"></path></svg>