<svg width="20" height="20" viewBox="0 0 20 20" fill="none" xmlns="http://www.w3.org/2000/svg"><path fill-rule="evenodd" clip-rule="evenodd" d="M9.1665 2.5H10.8332C14.9753 2.5 18.3332 5.85786 18.3332 10C18.3332 14.1421 14.9753 17.5 10.8332 17.5H4.99984C3.15889 17.5 1.6665 16.0076 1.6665 14.1667V10C1.6665 5.85786 5.02437 2.5 9.1665 2.5ZM9.99984 6.875C10.345 6.875 10.6248 7.15482 10.6248 7.5V9.375H12.4998C12.845 9.375 13.1248 9.65482 13.1248 10C13.1248 10.3452 12.845 10.625 12.4998 10.625H10.6248V12.5C10.6248 12.8452 10.345 13.125 9.99984 13.125C9.65466 13.125 9.37484 12.8452 9.37484 12.5V10.625H7.49984C7.15466 10.625 6.87484 10.3452 6.87484 10C6.87484 9.65482 7.15466 9.375 7.49984 9.375H9.37484V7.5C9.37484 7.15482 9.65466 6.875 9.99984 6.875Z" fill="white"></path></svg>