<svg xmlns="http://www.w3.org/2000/svg" width="21" height="21" viewBox="0 0 21 21" fill="none"><path fill-rule="evenodd" clip-rule="evenodd" d="M10.1601 1.75C5.51533 1.75 1.75 5.43217 1.75 9.97435C1.75 14.5165 5.51533 18.1987 10.1601 18.1987C12.1474 18.1987 13.9736 17.5247 15.4129 16.3976L18.1445 19.0619L18.2172 19.1232C18.471 19.3068 18.8308 19.2859 19.0605 19.0608C19.3131 18.8131 19.3125 18.412 19.0593 18.165L16.3596 15.5318C17.7324 14.0682 18.5702 12.117 18.5702 9.97435C18.5702 5.43217 14.8049 1.75 10.1601 1.75ZM10.1601 3.01465C14.0895 3.01465 17.2748 6.12966 17.2748 9.97223C17.2748 13.8148 14.0895 16.9298 10.1601 16.9298C6.23078 16.9298 3.04541 13.8148 3.04541 9.97223C3.04541 6.12966 6.23078 3.01465 10.1601 3.01465Z" fill="#32a842"></path></svg>