<?xml version="1.0" ?><svg data-name="Layer 1" height="200" id="Layer_1" viewBox="0 0 200 200" width="200" xmlns="http://www.w3.org/2000/svg"><title/><path fill="#fff" d="M170,104.75a10,10,0,0,0-10,10v22.5a20.06,20.06,0,0,1-20,20H60a20.06,20.06,0,0,1-20-20v-70a10,10,0,0,1,10-10H74.5a10,10,0,0,0,0-20H50a30.09,30.09,0,0,0-30,30v70a40.12,40.12,0,0,0,40,40h80a40.12,40.12,0,0,0,40-40v-22.5A10,10,0,0,0,170,104.75Z"/><path fill="#fff" d="M97.5,137.25a10,10,0,0,0,10-10V89.75a20.06,20.06,0,0,1,20-20H148l-12,12a9.9,9.9,0,0,0,14,14l21-21a19.74,19.74,0,0,0,6-14v-1a3.75,3.75,0,0,0-.5-2.5,18,18,0,0,0-5.5-10.5l-21-21a9.67,9.67,0,0,0-14,0,9.67,9.67,0,0,0,0,14l10.5,10.5h-19a40.12,40.12,0,0,0-40,40v37A10,10,0,0,0,97.5,137.25Z"/></svg>