<svg xmlns="http://www.w3.org/2000/svg" width="20" height="20" viewBox="0 0 20 20" fill="none">
<path d="M10 20C15.514 20 20 15.514 20 10C20 4.486 15.514 0 10 0C4.486 0 0 4.486 0 10C0 15.514 4.486 20 10 20ZM13.493 7C14.317 7 14.986 7.669 14.986 8.493C14.986 9.317 14.317 9.986 13.493 9.986C12.669 9.986 12 9.317 12 8.493C12 7.669 12.669 7 13.493 7ZM9.192 13.919C9.721 14.026 10.277 14.026 10.808 13.919C11.061 13.867 11.313 13.788 11.558 13.686C11.792 13.586 12.022 13.462 12.237 13.318C12.445 13.176 12.644 13.012 12.828 12.829C13.011 12.647 13.175 12.448 13.317 12.237L14.975 13.354C14.76 13.673 14.513 13.973 14.241 14.245C13.97 14.516 13.671 14.763 13.356 14.975C13.034 15.193 12.691 15.378 12.335 15.529C11.967 15.683 11.589 15.801 11.207 15.879C10.811 15.959 10.404 16 10 16C9.596 16 9.189 15.959 8.793 15.878C8.41 15.801 8.032 15.683 7.666 15.529C7.309 15.378 6.966 15.192 6.645 14.975C6.329 14.761 6.03 14.515 5.757 14.242C5.486 13.972 5.238 13.673 5.024 13.353L6.682 12.236C6.825 12.447 6.989 12.646 7.17 12.826C7.355 13.012 7.554 13.176 7.764 13.318C7.977 13.462 8.206 13.586 8.443 13.686C8.687 13.788 8.938 13.867 9.192 13.919ZM6.5 7C7.328 7 8 7.672 8 8.5C8 9.328 7.328 10 6.5 10C5.672 10 5 9.328 5 8.5C5 7.672 5.672 7 6.5 7Z" fill="#A4ABB6"/>
</svg>