<svg xmlns="http://www.w3.org/2000/svg" width="20" height="20" viewBox="0 0 20 20" fill="none">
<g clip-path="url(#clip0_4932_46549)">
<path d="M19.375 8.24915L10.2275 17.3975C9.17264 18.4524 7.74189 19.045 6.25003 19.045C4.75818 19.045 3.32743 18.4524 2.27253 17.3975C1.21764 16.3426 0.625 14.9118 0.625 13.42C0.625 11.9281 1.21764 10.4974 2.27253 9.44249L9.78587 1.92999C10.1318 1.57182 10.5456 1.28614 11.0031 1.08961C11.4606 0.893073 11.9527 0.789625 12.4506 0.785298C12.9485 0.780971 13.4423 0.875852 13.9032 1.06441C14.3641 1.25296 14.7828 1.53141 15.1348 1.88351C15.4869 2.2356 15.7654 2.6543 15.9539 3.11516C16.1425 3.57602 16.2374 4.06982 16.2331 4.56774C16.2287 5.06566 16.1253 5.55774 15.9287 6.01525C15.7322 6.47277 15.4465 6.88656 15.0884 7.23249L7.57587 14.7492C7.22229 15.0908 6.74869 15.2798 6.25707 15.2756C5.76545 15.2714 5.29515 15.0743 4.94745 14.7267C4.59976 14.3791 4.40249 13.9089 4.39814 13.4173C4.39379 12.9257 4.58271 12.452 4.9242 12.0983L12.4375 4.58249" stroke="#A4ABB6" stroke-width="1.5" stroke-linecap="round" stroke-linejoin="round"/>
</g>
<defs>
<clipPath id="clip0_4932_46549">
<rect width="20" height="20" fill="white"/>
</clipPath>
</defs>
</svg>